HIERARCHY
ROOT Pelvis
{
	OFFSET 0.000000 0.941512 0.000000
	CHANNELS 6 Xposition Yposition Zposition Zrotation Yrotation Xrotation 
	JOINT Pelvis_L_Hip
	{
		OFFSET 0.000000 0.000000 0.000000
		CHANNELS 3 Zrotation Yrotation Xrotation
		JOINT L_Hip
		{
			OFFSET 0.062321 -0.080322 -0.016990
			CHANNELS 3 Zrotation Yrotation Xrotation
			JOINT L_Knee
			{
				OFFSET 0.093051 -0.381305 -0.029784
				CHANNELS 3 Zrotation Yrotation Xrotation
				JOINT L_Ankle
				{
					OFFSET -0.010371 -0.431000 -0.033614
					CHANNELS 3 Zrotation Yrotation Xrotation
					End Site #name: L_Foot
					{
						OFFSET 0.069299 -0.038670 0.119418
					}
				}
			}
		}
	}
	JOINT Pelvis_R_Hip
	{
		OFFSET 0.000000 0.000000 0.000000
		CHANNELS 3 Zrotation Yrotation Xrotation
		JOINT R_Hip
		{
			OFFSET -0.055334 -0.094904 -0.002373
			CHANNELS 3 Zrotation Yrotation Xrotation
			JOINT R_Knee
			{
				OFFSET -0.064207 -0.384370 -0.019592
				CHANNELS 3 Zrotation Yrotation Xrotation
				JOINT R_Ankle
				{
					OFFSET 0.025418 -0.419734 -0.065953
					CHANNELS 3 Zrotation Yrotation Xrotation
					End Site #name: R_Foot
					{
						OFFSET -0.057233 -0.039888 0.132134
					}
				}
			}
		}
	}
	JOINT Pelvis_Spine1
	{
		OFFSET 0.000000 0.000000 0.000000
		CHANNELS 3 Zrotation Yrotation Xrotation
		JOINT Spine1
		{
			OFFSET -0.005562 0.124093 -0.043360
			CHANNELS 3 Zrotation Yrotation Xrotation
			JOINT Spine2
			{
				OFFSET 0.012244 0.139499 0.029894
				CHANNELS 3 Zrotation Yrotation Xrotation
				JOINT Spine3
				{
					OFFSET -0.002556 0.056561 0.009225
					CHANNELS 3 Zrotation Yrotation Xrotation
					JOINT Spine3_Neck
					{
						OFFSET 0.000000 0.000000 0.000000
						CHANNELS 3 Zrotation Yrotation Xrotation
						JOINT Neck
						{
							OFFSET -0.005205 0.217920 -0.024551
							CHANNELS 3 Zrotation Yrotation Xrotation
							End Site #name: Head
							{
								OFFSET 0.002365 0.091850 0.046637
							}
						}
					}
					JOINT Spine3_L_Collar
					{
						OFFSET 0.000000 0.000000 0.000000
						CHANNELS 3 Zrotation Yrotation Xrotation
						JOINT L_Collar
						{
							OFFSET 0.072225 0.116603 -0.009480
							CHANNELS 3 Zrotation Yrotation Xrotation
							JOINT L_Shoulder
							{
								OFFSET 0.115937 -0.058643 -0.021018
								CHANNELS 3 Zrotation Yrotation Xrotation
								JOINT L_Elbow
								{
									OFFSET 0.021994 -0.254722 -0.024492
									CHANNELS 3 Zrotation Yrotation Xrotation
									End Site #name: L_Wrist
									{
										OFFSET 0.048810 -0.240214 0.103329
									}
								}
							}
						}
					}
					JOINT Spine3_R_Collar
					{
						OFFSET 0.000000 0.000000 0.000000
						CHANNELS 3 Zrotation Yrotation Xrotation
						JOINT R_Collar
						{
							OFFSET -0.073372 0.120704 -0.024611
							CHANNELS 3 Zrotation Yrotation Xrotation
							JOINT R_Shoulder
							{
								OFFSET -0.108089 -0.054969 -0.020504
								CHANNELS 3 Zrotation Yrotation Xrotation
								JOINT R_Elbow
								{
									OFFSET -0.033684 -0.260739 0.009889
									CHANNELS 3 Zrotation Yrotation Xrotation
									End Site #name: R_Wrist
									{
										OFFSET -0.067980 -0.232763 0.118463
									}
								}
							}
						}
					}
				}
			}
		}
	}
}
MOTION
Frames: 9
Frame Time: 0.041667
-3.717922 0.884033 -1.289416 -8.665061 40.891547 5.103643 0.000000 0.000000 0.000000 9.932122 -0.991379 10.451652 -73.113227 -31.545293 -23.966393 107.702244 58.199783 123.562624 0.000000 0.000000 0.000000 23.515725 -5.725382 7.114309 -59.308479 -6.999572 -8.681492 -155.471102 71.072605 175.355018 0.000000 0.000000 0.000000 -16.659840 -1.339298 -26.391654 3.207224 -1.197626 14.205336 18.728739 32.530037 19.554314 0.000000 0.000000 0.000000 -19.264965 3.299182 -21.585165 0.000000 0.000000 0.000000 3.622298 51.859640 46.327074 -11.796933 -3.886989 -23.614206 8.922050 -2.441814 -42.509289 0.000000 0.000000 0.000000 -37.777055 31.861605 -51.597767 15.830029 -14.432740 51.077270 1.561639 12.212039 -31.128582 
-3.653445 0.903830 -1.361068 -11.171687 44.169688 4.105151 0.000000 0.000000 0.000000 24.527955 -6.076309 6.619860 -75.839110 -25.319473 -17.262174 112.022572 60.399547 118.827288 0.000000 0.000000 0.000000 19.234092 -2.840070 3.076888 -55.818431 -2.576680 -2.003326 172.067734 76.741828 146.051742 0.000000 0.000000 0.000000 -14.971700 -0.424478 -22.799083 3.510509 -1.211703 12.301498 17.672790 32.681176 16.714572 0.000000 0.000000 0.000000 -19.160396 3.524725 -19.186183 0.000000 0.000000 0.000000 5.577265 46.715973 44.637538 -12.922364 -2.158619 -14.745699 7.633102 -4.166093 -44.368526 0.000000 0.000000 0.000000 -35.896679 29.643124 -47.921761 19.785848 -14.675869 46.318547 0.675614 16.818372 -42.646395 
-3.574826 0.939214 -1.432178 -14.273600 46.592738 5.548816 0.000000 0.000000 0.000000 33.004040 -8.597199 -1.232333 -63.264294 -16.909993 -14.412315 104.475893 61.125724 112.247302 0.000000 0.000000 0.000000 14.882995 -0.092772 -2.806472 -48.941182 0.913453 2.763533 103.555906 65.112086 85.082933 0.000000 0.000000 0.000000 -11.689904 -0.043988 -23.963941 3.764646 -1.107282 9.492471 16.691804 32.512004 15.193231 0.000000 0.000000 0.000000 -18.610450 3.755786 -17.027315 0.000000 0.000000 0.000000 13.176802 43.237372 48.845555 -14.233582 -0.436335 -9.155882 3.387207 -9.585447 -50.230883 0.000000 0.000000 0.000000 -38.708718 26.696923 -46.602811 19.703671 -12.741356 43.337992 4.518023 29.699009 -54.575153 
-3.489720 0.973169 -1.504216 -17.041317 47.984735 7.605740 0.000000 0.000000 0.000000 35.605992 -8.707564 -8.789805 -43.574856 -8.178988 -10.980530 79.273182 61.660632 93.991334 0.000000 0.000000 0.000000 11.719289 1.582130 -8.475887 -43.868627 2.884736 6.109325 74.533846 44.382818 67.549344 0.000000 0.000000 0.000000 -7.158408 0.334980 -26.593077 3.090836 -0.743854 6.553003 15.734622 32.184069 14.353252 0.000000 0.000000 0.000000 -18.664175 4.140216 -12.992186 0.000000 0.000000 0.000000 19.868799 39.991493 52.282821 -13.930170 0.976263 -4.872727 0.669427 -14.584610 -57.784662 0.000000 0.000000 0.000000 -42.052748 23.554509 -44.805063 18.270129 -10.229109 39.625000 8.117590 42.385597 -61.725002 
-3.400531 0.984001 -1.575291 -17.781894 48.226147 7.674201 0.000000 0.000000 0.000000 33.278689 -7.826995 -12.424557 -26.732465 -2.657452 -5.569752 53.067289 60.651801 65.304210 0.000000 0.000000 0.000000 12.749433 1.569587 -8.583369 -51.288335 1.978232 6.025648 67.258254 35.194819 66.680014 0.000000 0.000000 0.000000 -5.439099 0.680414 -26.012504 3.657378 -0.847140 4.730440 14.524115 31.905455 13.086747 0.000000 0.000000 0.000000 -19.164811 4.415322 -8.288329 0.000000 0.000000 0.000000 25.223240 36.544724 54.127270 -12.914284 1.801647 -2.153364 0.081256 -17.978971 -66.405791 0.000000 0.000000 0.000000 -44.758876 20.630320 -42.120750 19.202752 -9.416718 38.150931 8.201991 46.089410 -64.336414 
-3.307055 0.962960 -1.644886 -13.091971 48.282038 10.575054 0.000000 0.000000 0.000000 27.132893 -6.474955 -13.482242 -21.459840 -1.467674 -2.474947 46.267529 59.514391 54.268467 0.000000 0.000000 0.000000 14.832539 1.248513 -7.839094 -69.713274 -0.336971 7.508679 77.733527 40.846836 73.779351 0.000000 0.000000 0.000000 -9.475383 0.231554 -25.336132 4.481665 -1.070831 4.543677 13.563152 31.103148 12.677258 0.000000 0.000000 0.000000 -17.404148 4.507184 -6.625217 0.000000 0.000000 0.000000 27.782234 30.870903 51.117170 -10.828610 1.462306 -3.012361 2.666908 -16.653752 -74.243333 0.000000 0.000000 0.000000 -44.540437 18.081159 -37.440254 20.974592 -9.624336 37.683799 7.416933 40.940018 -60.705419 
-3.217524 0.924302 -1.710665 -3.903779 47.985116 16.471980 0.000000 0.000000 0.000000 17.115580 -4.773940 -13.530418 -26.994536 -1.853854 1.316565 51.901186 62.486345 45.818445 0.000000 0.000000 0.000000 18.062139 1.643825 -10.619083 -91.686491 -0.032249 11.730155 90.819436 45.462080 84.603139 0.000000 0.000000 0.000000 -18.729799 -1.028808 -23.225950 5.653285 -1.389812 4.606949 12.632683 29.779361 12.595176 0.000000 0.000000 0.000000 -13.204024 4.369071 -8.638289 0.000000 0.000000 0.000000 25.484218 25.939670 43.453212 -2.711327 -0.358333 -7.855210 8.583405 -7.843886 -78.786006 0.000000 0.000000 0.000000 -39.111731 16.716892 -30.632336 18.009708 -9.083947 35.777246 8.894324 33.013676 -50.092480 
-3.128846 0.893200 -1.770276 2.682311 47.341811 19.436394 0.000000 0.000000 0.000000 6.247081 -2.945333 -10.542856 -30.303049 -2.097730 4.269696 50.115347 63.702606 30.935783 0.000000 0.000000 0.000000 25.865551 2.442605 -16.516502 -106.338531 6.188344 15.303058 94.525920 51.685696 86.382451 0.000000 0.000000 0.000000 -26.064683 -1.247060 -17.373071 8.149301 -1.994898 2.558121 12.015395 28.437229 12.080286 0.000000 0.000000 0.000000 -12.846214 4.555600 -9.841641 0.000000 0.000000 0.000000 23.554723 20.474075 35.731849 3.161176 -1.106789 -14.515418 14.645864 2.865472 -76.158156 0.000000 0.000000 0.000000 -36.070127 15.962977 -26.325026 16.108163 -9.284213 36.856988 8.119448 23.101687 -38.141072 
-3.032401 0.897167 -1.822034 3.566666 47.146873 17.873721 0.000000 0.000000 0.000000 -5.819579 -0.745787 -5.096021 -22.078628 -1.042449 4.917192 42.860791 59.782094 22.904297 0.000000 0.000000 0.000000 37.348953 2.952506 -22.218988 -104.645281 14.428068 18.628668 88.688977 58.521308 78.345265 0.000000 0.000000 0.000000 -26.088528 0.308343 -9.452549 10.235977 -2.397172 -1.771860 9.981753 27.098673 11.528213 0.000000 0.000000 0.000000 -12.653121 4.632108 -11.014735 0.000000 0.000000 0.000000 21.932168 17.077361 30.713253 3.665615 -1.438827 -22.545526 20.517486 11.761975 -73.468610 0.000000 0.000000 0.000000 -35.807730 13.516020 -22.647894 11.098618 -8.615658 40.329988 12.353419 22.683448 -30.355690 
